<?xml version="1.0" encoding="iso-8859-1"?>
<!-- Uploaded to: SVG Repo, www.svgrepo.com, Generator: SVG Repo Mixer Tools -->
<svg version="1.1" id="Layer_1" xmlns="http://www.w3.org/2000/svg" xmlns:xlink="http://www.w3.org/1999/xlink" 
	 viewBox="0 0 297 297" xml:space="preserve">
<g>
	<g>
		<g>
			<g>
				<g>
					<circle cx="148.5" cy="148.5" r="148.5"/>
				</g>
			</g>
		</g>
	</g>
	<path style="fill:none;" d="M239.25,108.417L57.75,215.083l81.63,81.63c3.018,0.183,6.057,0.287,9.12,0.287
		c76.359,0,139.246-57.636,147.557-131.776L239.25,108.417z"/>
	<g>
		<g>
			<rect x="189.75" y="75.917" style="fill:#27AE60;" width="16.5" height="116"/>
		</g>
		<g>
			<rect x="90.75" y="108.417" style="fill:#27AE60;" width="16.5" height="83.5"/>
		</g>
		<g>
			<rect x="222.75" y="108.417" style="fill:#BFF796;" width="16.5" height="83.5"/>
		</g>
		<g>
			<rect x="123.75" y="59.917" style="fill:#BFF796;" width="16.5" height="132"/>
		</g>
		<g>
			<rect x="156.75" y="125.917" style="fill:#BFF796;" width="16.5" height="66"/>
		</g>
		<g>
			<rect x="57.75" y="141.917" style="fill:#BFF796;" width="16.5" height="50"/>
		</g>
	</g>
	<g>
		<g>
			<rect x="189.75" y="198.75" style="fill:#FFA800;" width="16.5" height="16.333"/>
		</g>
		<g>
			<rect x="90.75" y="198.75" style="fill:#FFA800;" width="16.5" height="16.333"/>
		</g>
		<g>
			<rect x="222.75" y="198.75" style="fill:#FFA800;" width="16.5" height="16.333"/>
		</g>
		<g>
			<rect x="123.75" y="198.75" style="fill:#FFA800;" width="16.5" height="16.333"/>
		</g>
		<g>
			<rect x="156.75" y="198.75" style="fill:#FFA800;" width="16.5" height="16.333"/>
		</g>
		<g>
			<rect x="57.75" y="198.75" style="fill:#FFA800;" width="16.5" height="16.333"/>
		</g>
	</g>
</g>
</svg>